<?xml version="1.0" encoding="utf-8"?>
<!-- Generator: Adobe Illustrator 16.0.3, SVG Export Plug-In . SVG Version: 6.00 Build 0)  -->
<!DOCTYPE svg PUBLIC "-//W3C//DTD SVG 1.1//EN" "http://www.w3.org/Graphics/SVG/1.1/DTD/svg11.dtd">
<svg version="1.1" id="Capa_1" xmlns="http://www.w3.org/2000/svg" xmlns:xlink="http://www.w3.org/1999/xlink" x="0px" y="0px"
	 width="1024px" height="1024px" viewBox="0 0 1024 1024" enable-background="new 0 0 1024 1024" xml:space="preserve">
<g>
	<g>
		<path fill="#428DFF" d="M405.53,890.55c0.01,0.021,0.03,0.04,0.05,0.061c1.81,0.18,3.62,0.35,5.42,0.51
			C409.17,890.94,407.35,890.75,405.53,890.55z M478.21,861.6c-31.14-1.199-62.95-3.909-97.22-8.149
			c34.65,4.6,69.47,7.399,104.33,8.399C482.95,861.78,480.58,861.68,478.21,861.6z M506.09,896.38c2.94,0.061,5.89,0.11,8.83,0.15
			c2.95-0.04,5.9-0.09,8.85-0.15C517.88,896.44,511.98,896.44,506.09,896.38z M552.71,861.56c-2.6,0.101-5.2,0.2-7.8,0.28
			c35.02-1.02,70-3.859,104.8-8.49C615.51,857.59,583.76,860.33,552.71,861.56z M618.84,891.12c1.95-0.17,3.891-0.351,5.84-0.54
			c0.011-0.03,0.03-0.05,0.051-0.08C622.77,890.71,620.81,890.92,618.84,891.12z M552.71,861.56c-2.6,0.101-5.2,0.2-7.8,0.28
			c35.02-1.02,70-3.859,104.8-8.49C615.51,857.59,583.76,860.33,552.71,861.56z M460.8,131.92v0.25c33.9-5.36,68.41-5.65,102.4-0.87
			v-0.33C529.23,126.11,494.7,126.43,460.8,131.92z M478.21,861.6c-31.14-1.199-62.95-3.909-97.22-8.149
			c34.65,4.6,69.47,7.399,104.33,8.399C482.95,861.78,480.58,861.68,478.21,861.6z"/>
		<path fill="#2170A6" d="M926.63,832.87c-1.92,6.09-7.08,10.6-13.37,11.68l-161.97,27.97c-27.72,5.29-55.59,9.73-83.57,13.28
			c1.521-3.02,2.95-6.1,4.29-9.229c2.49-5.63,1.75-12.16-1.93-17.101c-3.54-4.689-9.21-7.229-15.04-6.8
			c28.15-3.59,57.979-8.189,90.45-13.79l130.66-22.56C806.91,739.99,768.51,640.65,768.42,537.6V384
			c-0.85-83.62-49.75-159.29-125.64-194.42c-20.311-9.32-41.391-16.31-62.851-20.96c4.011,0.08,7.96-1.25,11.12-3.83
			c3.97-3.24,6.28-8.1,6.28-13.22v-13.93c20.33,5.06,40.3,12.03,59.64,20.91c88.48,40.21,145.38,128.35,145.58,225.55v153.5
			c-0.109,105.24,43.26,205.851,119.84,278.03C926.92,820.14,928.55,826.79,926.63,832.87z"/>
		<path fill="#2170A6" d="M256,384.1v153.5c1.81,102.42-34.71,201.82-102.41,278.7l130.76,22.58
			c32.52,5.61,62.39,10.22,90.57,13.811c-5.74-0.37-11.3,2.189-14.76,6.829c-3.67,4.931-4.41,11.471-1.92,17.101
			c1.34,3.13,2.77,6.21,4.29,9.229c-28.11-3.56-56.12-8.01-83.98-13.33l-161.98-27.97c-6.29-1.08-11.45-5.59-13.38-11.68
			c-1.92-6.08-0.28-12.73,4.24-17.24c74.88-72.91,116.3-173.53,114.44-278.03V384c0.68-107.85,76.38-190.85,151.1-225.3
			c17.45-8.04,35.42-14.52,53.7-19.43v13.53c-0.01,4.53,1.79,8.87,4.99,12.07c3.2,3.2,7.54,5,12.07,5c0.5,0,1-0.02,1.5-0.08
			c-19.77,4.64-39.19,11.28-57.96,19.91C322.35,219.63,256.58,291.35,256,384.1z"/>
		<path fill="#428DFF" d="M445.23,169.79c0.76-0.05,1.51-0.17,2.25-0.34c42.56-9.47,86.64-9.87,129.36-1.17
			c1.03,0.21,2.061,0.33,3.09,0.34C535.53,159.01,489.5,159.4,445.23,169.79z"/>
		<path fill="#2170A6" d="M597.33,137.64v13.93c0,5.12-2.311,9.98-6.28,13.22c-3.16,2.58-7.109,3.91-11.12,3.83
			c-44.399-9.61-90.43-9.22-134.7,1.17c-0.5,0.06-1,0.08-1.5,0.08c-4.53,0-8.87-1.8-12.07-5c-3.2-3.2-5-7.54-4.99-12.07v-13.53
			c11.27-3.05,22.67-5.5,34.13-7.35v0.25c33.9-5.36,68.41-5.65,102.4-0.87v-0.33C574.66,132.6,586.05,134.82,597.33,137.64z"/>
		<path fill="#2170A6" d="M597.33,128v9.64c-11.28-2.82-22.67-5.04-34.13-6.67V128c-0.03-28.26-22.94-51.17-51.2-51.2
			c-28.26,0.03-51.17,22.94-51.2,51.2v3.92c-11.46,1.85-22.86,4.3-34.13,7.35V128c0-47.13,38.2-85.33,85.33-85.33
			S597.33,80.87,597.33,128z"/>
		<path fill="#428DFF" d="M376,852.79c-0.34-0.04-0.67-0.08-1.01-0.09c2.01,0.26,4.01,0.51,6,0.75
			C379.32,853.24,377.66,853.02,376,852.79z M411.03,891.12c31.61,3.24,63.33,4.99,95.06,5.26
			C474.34,895.74,442.63,893.99,411.03,891.12z M490.97,862c16.32,0.42,32.52,0.41,48.85-0.02
			C523.54,862.38,507.25,862.39,490.97,862z M523.77,896.38c31.721-0.27,63.421-2.02,95.021-5.26
			C587.2,893.99,555.51,895.74,523.77,896.38z M523.77,896.38c31.721-0.27,63.421-2.02,95.021-5.26
			C587.2,893.99,555.51,895.74,523.77,896.38z M411.03,891.12c31.61,3.24,63.33,4.99,95.06,5.26
			C474.34,895.74,442.63,893.99,411.03,891.12z M654.25,852.74c-1.51,0.21-3.03,0.41-4.54,0.609c1.771-0.22,3.55-0.449,5.33-0.68
			C654.78,852.68,654.51,852.71,654.25,852.74z"/>
		<path fill="#2170A6" d="M667.72,885.8c-28.819,57.641-87.6,94.76-152.6,95.53c-64.99-0.76-123.76-37.86-152.59-95.48
			c14.32,1.82,28.67,3.41,43.05,4.761c25.19,35.5,66.02,56.6,109.56,56.59c43.54-0.01,84.36-21.12,109.54-56.62
			C639.05,889.22,653.4,887.63,667.72,885.8z"/>
		<path fill="#87D2F3" d="M768.42,537.6V384c-0.85-83.62-49.75-159.29-125.64-194.42c-20.311-9.32-41.391-16.31-62.851-20.96
			c-1.029-0.01-2.06-0.13-3.09-0.34c-42.72-8.7-86.8-8.3-129.36,1.17c-0.74,0.17-1.49,0.29-2.25,0.34
			c-19.77,4.64-39.19,11.28-57.96,19.91C322.35,219.63,256.58,291.35,256,384.1v153.5c1.81,102.42-34.71,201.82-102.41,278.7
			l130.76,22.58c32.52,5.61,62.39,10.22,90.57,13.811c0.02,0,0.04,0,0.07,0.01c0.34,0.01,0.67,0.05,1.01,0.09
			c1.66,0.229,3.32,0.45,4.99,0.66c34.27,4.24,66.08,6.95,97.22,8.149c2.37,0.08,4.74,0.181,7.11,0.25
			c1.88,0.061,3.77,0.11,5.65,0.15c16.28,0.39,32.57,0.38,48.85-0.02c1.39-0.03,2.77-0.061,4.16-0.12c0.31,0,0.619,0,0.93-0.021
			c2.6-0.08,5.2-0.18,7.8-0.28c31.05-1.229,62.8-3.97,97-8.21c1.51-0.199,3.03-0.399,4.54-0.609c0.26-0.03,0.53-0.061,0.79-0.07
			c28.15-3.59,57.979-8.189,90.45-13.79l130.66-22.56C806.91,739.99,768.51,640.65,768.42,537.6z M624.34,265.63
			c-4.99,3.54-11.479,4.13-17.03,1.57C548.67,241,481.64,241,423,267.2c-30.15,13.9-81.27,54.15-81.67,116.9
			c-0.05,9.39-7.68,16.97-17.06,16.97h-0.11c-9.42-0.07-17.01-7.75-16.96-17.17c0.51-79.9,64.04-130.43,101.51-147.7
			c67.7-30.27,145.09-30.28,212.8-0.03c5.57,2.52,9.36,7.82,9.95,13.91C632.04,256.16,629.33,262.09,624.34,265.63z"/>
		<path fill="#FFFFFF" d="M624.34,265.63c-4.99,3.54-11.479,4.13-17.03,1.57C548.67,241,481.64,241,423,267.2
			c-30.15,13.9-81.27,54.15-81.67,116.9c-0.05,9.39-7.68,16.97-17.06,16.97h-0.11c-9.42-0.07-17.01-7.75-16.96-17.17
			c0.51-79.9,64.04-130.43,101.51-147.7c67.7-30.27,145.09-30.28,212.8-0.03c5.57,2.52,9.36,7.82,9.95,13.91
			C632.04,256.16,629.33,262.09,624.34,265.63z"/>
		<path fill="#2170A6" d="M672.01,876.57c-1.34,3.13-2.77,6.21-4.29,9.229c-14.319,1.83-28.67,3.42-43.04,4.78
			c0.011-0.03,0.03-0.05,0.051-0.08c-1.961,0.21-3.921,0.42-5.891,0.62h-0.05c-31.59,2.87-63.28,4.62-95.021,5.26
			c-5.89,0.061-11.79,0.061-17.68,0c-31.75-0.64-63.46-2.39-95.06-5.26c-0.01,0.01-0.02,0.01-0.03,0c-1.83-0.18-3.65-0.37-5.47-0.57
			c0.01,0.021,0.03,0.04,0.05,0.061c-14.38-1.351-28.73-2.94-43.05-4.761c-1.52-3.02-2.95-6.1-4.29-9.229
			c-2.49-5.63-1.75-12.17,1.92-17.101c3.46-4.64,9.02-7.199,14.76-6.829c0.02,0,0.04,0,0.07,0.01c2.01,0.26,4.01,0.51,6,0.75
			c34.65,4.6,69.47,7.399,104.33,8.399c1.88,0.061,3.77,0.11,5.65,0.15c16.32,0.42,32.52,0.41,48.85-0.02
			c1.39-0.03,2.77-0.061,4.16-0.12c0.31,0,0.619,0,0.93-0.021c35.02-1.02,70-3.859,104.8-8.49c1.771-0.22,3.55-0.449,5.33-0.68
			c5.83-0.43,11.5,2.11,15.04,6.8C673.76,864.41,674.5,870.94,672.01,876.57z"/>
		<path fill="#2170A6" d="M81.95,644.43c4.88,4.88,6.34,12.221,3.7,18.601s-8.86,10.529-15.77,10.54c-4.53,0-8.87-1.801-12.06-5
			c-77.09-77.25-77.09-202.32,0-279.57c4.3-4.34,10.6-6.05,16.51-4.47c5.91,1.57,10.52,6.18,12.09,12.09
			c1.58,5.91-0.13,12.21-4.47,16.51C18.19,477.05,18.19,580.51,81.95,644.43z"/>
		<path fill="#2170A6" d="M153.81,605.58c4.88,4.88,6.34,12.22,3.7,18.6c-2.65,6.38-8.87,10.53-15.77,10.54
			c-4.53,0-8.87-1.8-12.06-5c-56.96-57.09-56.96-149.5,0-206.59c4.3-4.34,10.6-6.05,16.51-4.47c5.91,1.57,10.52,6.19,12.09,12.09
			c1.58,5.91-0.13,12.21-4.47,16.52C110.16,491.01,110.16,561.84,153.81,605.58z"/>
		<path fill="#2170A6" d="M966.18,668.57c-3.189,3.199-7.54,5-12.06,5c-6.91-0.011-13.13-4.16-15.771-10.54
			c-2.64-6.38-1.18-13.721,3.7-18.601c63.76-63.92,63.76-167.38,0-231.3c-6.62-6.67-6.59-17.43,0.05-24.08
			c6.65-6.64,17.41-6.67,24.08-0.05C1043.27,466.25,1043.27,591.32,966.18,668.57z"/>
		<path fill="#2170A6" d="M894.33,629.72c-3.2,3.2-7.54,5-12.07,5c-6.899-0.01-13.13-4.16-15.77-10.54
			c-2.641-6.38-1.181-13.72,3.7-18.6c43.649-43.74,43.649-114.57,0-158.31c-4.33-4.31-6.04-10.6-4.46-16.51
			c1.569-5.9,6.189-10.51,12.09-12.09c5.899-1.57,12.199,0.13,16.51,4.46C951.28,480.22,951.28,572.63,894.33,629.72z"/>
	</g>
</g>
</svg>
