<?xml version="1.0" encoding="utf-8"?>
<!-- Generator: Adobe Illustrator 16.0.3, SVG Export Plug-In . SVG Version: 6.00 Build 0)  -->
<!DOCTYPE svg PUBLIC "-//W3C//DTD SVG 1.1//EN" "http://www.w3.org/Graphics/SVG/1.1/DTD/svg11.dtd">
<svg version="1.1" id="Capa_1" xmlns="http://www.w3.org/2000/svg" xmlns:xlink="http://www.w3.org/1999/xlink" x="0px" y="0px"
	 width="504px" height="321.801px" viewBox="0 0 504 321.801" enable-background="new 0 0 504 321.801" xml:space="preserve">
<g>
	<path fill="#D4E1F4" d="M329.805,186.664c-4.789,0.562-9.604,0.871-14.425,0.92c1.678-2.01,2.767-3.605,3.438-4.526
		C322.241,184.896,325.962,186.117,329.805,186.664z"/>
	<path fill="#D4E1F4" d="M454.09,95.334L349.679,53.574c4.727-4.8,11.869-6.288,18.117-3.774l84.279,33.713L454.09,95.334z"/>
	<path fill="#D4E1F4" d="M460.967,129.806c-11.825,2.767-24.486,5.031-31.449,6.288c-4.177,0.753-8.485-0.082-12.076-2.346
		l-0.671-0.421c16.018-3.103,36.734-7.716,42.437-12.412L460.967,129.806z"/>
	<path fill="#2170A6" d="M504.255,224.569l-7.852-47.05l-16.72-83.54l-5.67-34.07c-2.17-13.21-12.17-23.76-25.25-26.63l-58.82-13.08
		L341.784,2.14c-14.47-5.45-30.71,0.93-37.6,14.77l-15.87,31.74c-0.64,1.24-1.11,2.55-1.41,3.92l-7.79,32.7
		c-0.14,0.74-0.38,1.46-0.72,2.13l-4.91,9.8c-1.479,1.11-2.56,2.69-3.06,4.49c-0.15,0.69-0.23,1.39-0.23,2.1l-5.811,11.62
		c-0.521,0.97-1.229,1.83-2.089,2.52c-3.25,0.31-6.109,2.29-7.55,5.22c-0.11,0.23-0.17,0.57-0.27,0.83l-14.861,11.16
		c-3.61-0.1-7,1.7-8.94,4.73c-0.47,0.69-0.87,1.43-1.2,2.19l-8.94,4.47c-3.23-1.35-6.92-0.96-9.81,1.03c-2.45,1.68-4.39,4-5.62,6.71
		l-18.12,9c-3.23-1.35-6.93-0.96-9.81,1.03c-2.45,1.68-4.39,4-5.63,6.71l-16.98,8.48c-3.35-0.771-6.82,0.619-8.71,3.489
		c-32.4,8.8-59.82,16.04-88.49,22.13c-1.84,0.4-3.72,0.75-5.62,1.1c-6.49,0.951-12.85,2.671-18.94,5.111
		c-22.1,9.76-31.81,38.619-31.64,62.899c-1.43,13.271,6.42,25.79,18.98,30.29c25.77,11.88,53.89,17.779,82.27,17.26h372.199
		c11.5,0.03,22.021-6.47,27.13-16.779c0.65-1.319,1.23-2.681,1.74-4.061c0.96-1.4,1.48-3.061,1.47-4.76v-58.26
		C505.114,233.449,504.874,228.99,504.255,224.569z M466.595,113.859c-0.37,0.19-0.73,0.41-1.07,0.66
		c-2.1,1.91-14.8,7.16-47.81,13.31c-2.08,0.38-4.23-0.04-6.021-1.19l-71.438-45.46c-1.972-1.25-3.33-3.28-3.75-5.57
		c-0.422-2.3,0.14-4.67,1.539-6.54l6.579-8.77c2.271-3.03,6.312-4.16,9.83-2.75l109.62,43.86L466.595,113.859z M159.195,195.89
		l11.67-5.87c1.14,4.12,2.69,8.11,4.63,11.92c1.42,2.86,4.35,4.66,7.54,4.641c2.9,0,5.6-1.511,7.13-3.98
		c1.52-2.47,1.66-5.55,0.36-8.15c-2.06-3.8-3.44-7.93-4.09-12.199l17.99-8.92c1.13,4.119,2.68,8.119,4.62,11.93
		c1.42,2.85,4.35,4.65,7.54,4.63c2.91,0,5.6-1.51,7.13-3.979c1.52-2.471,1.66-5.551,0.36-8.15c-2.06-3.801-3.44-7.93-4.09-12.2
		l10.95-5.47c3.2,5.85,7.51,11.02,12.68,15.24c3.51,3.029,8.81,2.649,11.84-0.86c3.03-3.5,2.64-8.8-0.86-11.83
		c-3.78-2.95-6.88-6.67-9.12-10.9l11.24-8.5c3.511,6.32,8.71,11.55,15.01,15.1c2.56,1.66,5.84,1.79,8.53,0.34
		c2.688-1.46,4.379-4.26,4.408-7.32c0.021-3.06-1.619-5.89-4.289-7.38c-4.601-2.27-8.131-6.25-9.83-11.1l1.439-1.08
		c2.561-1.99,4.721-4.45,6.34-7.24c3.95,4.45,8.95,7.86,14.551,9.89c2.811,1.11,6.01,0.62,8.359-1.29c2.35-1.9,3.49-4.93,2.99-7.91
		c-0.51-2.98-2.58-5.46-5.432-6.49c-5.529-1.79-9.8-6.22-11.408-11.8l6.02-12.04c0.96-1.91,1.67-3.94,2.102-6.03l7.799-32.71
		l15.881-31.77c3.05-6.15,10.27-8.99,16.7-6.56l48.22,18.09c0.72,0.26,1.45,0.48,2.2,0.64l58.81,13.08
		c6.38,1.39,11.271,6.53,12.352,12.97l3.229,19.36l-99.99-39.98c-10.56-4.2-22.63-0.82-29.46,8.26l-6.6,8.77
		c-4.2,5.6-5.87,12.7-4.62,19.59c1.24,6.88,5.311,12.94,11.2,16.71l71.46,45.46c5.359,3.44,11.83,4.7,18.09,3.52
		c16.88-2.44,33.41-6.86,49.26-13.16l2.521,12.64c-136.062,48.86-158.74,33.93-161.91,30.36c-2.521-2.811-0.471-7.701,0.529-9.67
		c1.341-2.68,1.16-5.87-0.479-8.38c-1.649-2.51-4.51-3.94-7.5-3.77c-2.989,0.17-5.67,1.93-7.021,4.6
		c-4.779,8.14-4.641,18.27,0.369,26.28c0,0.069-0.129,0.11-0.17,0.19c-0.289,0.52-30,50.6-139.378,54.229
		C153.565,229.529,155.635,210.72,159.195,195.89z M39.575,226.63c4.92-1.88,10.03-3.2,15.23-3.931c2.04-0.38,4.07-0.75,6.05-1.18
		c26.23-5.58,51.26-12.07,79.94-19.79c-2.58,11.84-2.95,24.07-1.09,36.06c-35.65,0.101-71.27-2.14-106.63-6.709
		C34.995,229.26,37.185,227.76,39.575,226.63z M23.225,245.709c0.58,0.36,1.21,0.65,1.86,0.841c28.3,6.71,95.1,7.85,119.03,8.06
		c0.07,0.03,0.15,0.051,0.23,0.07h8.38c0.31-0.03,0.61-0.07,0.91-0.141c114.14-2.641,151.249-53.239,156.659-61.709
		c7.052,2.149,14.4,3.149,21.762,2.97c30.14,0,77.938-11.841,143.83-35.38l2.87,14.39c-13.24,4.99-26.892,8.81-40.79,11.42
		c-12.79,2.25-25.32,5.8-37.4,10.58c-17.98,9-26.45,55.5-29.21,74.64h-67.67c-247.399,0-279.91-7.25-282.209-7.858
		c-0.88-0.312-1.81-0.472-2.73-0.48C19.495,257.149,21.005,251.3,23.225,245.709z M488.185,293.97l-0.15,0.36
		c-0.37,1.078-0.8,2.129-1.29,3.148c-2.278,4.609-6.989,7.53-12.13,7.51H102.415c-25.69,0.54-51.17-4.71-74.55-15.35
		c-6.75-3.51-8.88-5.34-9.58-9.62c18.86,4.14,101.66,8.2,285.4,8.2h184.5V293.97z M488.185,237.91l-1.24,33.439h-99.86
		c5.37-26.49,13.98-55.99,20.98-59.439c10.88-4.101,22.11-7.201,33.55-9.271c13.62-2.681,27.03-6.32,40.141-10.899l5.931,35.6
		C488.154,230.84,488.324,234.369,488.185,237.91z"/>
	<path fill="#87D2F3" d="M466.595,113.859c-0.37,0.19-0.73,0.41-1.07,0.66c-2.1,1.91-14.8,7.16-47.81,13.31
		c-2.08,0.38-4.23-0.04-6.021-1.19l-71.438-45.46c-1.972-1.25-3.33-3.28-3.75-5.57c-0.422-2.3,0.14-4.67,1.539-6.54l6.579-8.77
		c2.271-3.03,6.312-4.16,9.83-2.75l109.62,43.86L466.595,113.859z"/>
	<path fill="#87D2F3" d="M478.755,174.81c-13.24,4.99-26.892,8.81-40.79,11.42c-12.79,2.25-25.32,5.8-37.4,10.58
		c-17.98,9-26.45,55.5-29.21,74.64h-67.67c-247.399,0-279.91-7.25-282.209-7.858c-0.88-0.312-1.81-0.472-2.73-0.48
		c0.75-5.96,2.26-11.81,4.48-17.399c0.58,0.359,1.21,0.649,1.86,0.84c28.3,6.71,95.1,7.85,119.03,8.06
		c0.07,0.03,0.15,0.05,0.23,0.07h8.38c0.31-0.03,0.61-0.07,0.91-0.14c114.14-2.642,151.249-53.24,156.659-61.711
		c7.052,2.15,14.4,3.15,21.762,2.971c30.14,0,77.938-11.84,143.83-35.38L478.755,174.81z"/>
</g>
</svg>
