<?xml version="1.0" encoding="utf-8"?>
<!-- Generator: Adobe Illustrator 16.0.3, SVG Export Plug-In . SVG Version: 6.00 Build 0)  -->
<!DOCTYPE svg PUBLIC "-//W3C//DTD SVG 1.1//EN" "http://www.w3.org/Graphics/SVG/1.1/DTD/svg11.dtd">
<svg version="1.1" id="Capa_1" xmlns="http://www.w3.org/2000/svg" xmlns:xlink="http://www.w3.org/1999/xlink" x="0px" y="0px"
	 width="512px" height="512px" viewBox="0 0 512 512" enable-background="new 0 0 512 512" xml:space="preserve">
<path fill="#2170A6" d="M495.984,240.008H293.322c-8.831,0-15.999-7.167-15.999-16c0-8.832,7.168-16,15.999-16h202.662
	c8.832,0,16,7.168,16,16C511.984,232.841,504.816,240.008,495.984,240.008z"/>
<path fill="#2170A6" d="M415.987,320.006c-4.098,0-8.191-1.559-11.309-4.691c-6.25-6.254-6.25-16.387,0-22.636l68.693-68.689
	l-68.693-68.693c-6.25-6.25-6.25-16.382,0-22.632c6.254-6.254,16.387-6.254,22.636,0l79.998,79.998c6.25,6.25,6.25,16.382,0,22.632
	l-79.998,79.998C424.178,318.447,420.085,320.006,415.987,320.006z"/>
<path fill="#2170A6" d="M184.27,44.77l-38.3-12.76L55.89,2c-4.33-1.34-8.66-1.98-13.22-1.98C19.14,0.02,0,19.15,0,42.68v383.99
	c0,18.2,11.59,34.47,29.05,40.57l128.39,42.779c4.32,1.341,8.66,1.98,13.22,1.98c23.53,0,42.67-19.14,42.67-42.67V85.35
	C213.33,67.15,201.74,50.87,184.27,44.77z M181.33,469.33c0,5.87-4.8,10.67-10.67,10.67c-1.36,0-2.56-0.17-3.48-0.47L39.4,436.95
	c-4.35-1.51-7.4-5.74-7.4-10.28V42.68c0-5.86,4.8-10.67,10.67-10.67c1.36,0,2.56,0.18,3.47,0.47l127.78,42.58
	c4.36,1.52,7.41,5.74,7.41,10.29V469.33z"/>
<path fill="#87D2F3" d="M181.33,85.35v383.98c0,5.87-4.8,10.67-10.67,10.67c-1.36,0-2.56-0.17-3.48-0.47L39.4,436.95
	c-4.35-1.51-7.4-5.74-7.4-10.28V42.68c0-5.86,4.8-10.67,10.67-10.67c1.36,0,2.56,0.18,3.47,0.47l127.78,42.58
	C178.28,76.58,181.33,80.8,181.33,85.35z"/>
<path fill="#2170A6" d="M325.322,170.679c-8.832,0-16-7.168-16-16V58.682c0-14.699-11.965-26.667-26.663-26.667H42.667
	c-8.832,0-16-7.167-16-16c0-8.832,7.168-16,16-16h239.993c32.362,0,58.662,26.304,58.662,58.667v95.997
	C341.321,163.511,334.153,170.679,325.322,170.679z"/>
<path fill="#2170A6" d="M282.659,448.002h-85.333c-8.832,0-16-7.168-16-16c0-8.831,7.168-15.999,16-15.999h85.333
	c14.698,0,26.663-11.969,26.663-26.667v-95.997c0-8.832,7.168-15.999,16-15.999c8.831,0,15.999,7.167,15.999,15.999v95.997
	C341.321,421.698,315.021,448.002,282.659,448.002z"/>
</svg>
