<?xml version="1.0" encoding="utf-8"?>
<!-- Generator: Adobe Illustrator 16.0.3, SVG Export Plug-In . SVG Version: 6.00 Build 0)  -->
<!DOCTYPE svg PUBLIC "-//W3C//DTD SVG 1.1//EN" "http://www.w3.org/Graphics/SVG/1.1/DTD/svg11.dtd">
<svg version="1.1" id="Capa_1" xmlns="http://www.w3.org/2000/svg" xmlns:xlink="http://www.w3.org/1999/xlink" x="0px" y="0px"
	 width="1074px" height="962px" viewBox="29.5 -3.5 1074 962" enable-background="new 29.5 -3.5 1074 962" xml:space="preserve">
<path fill="#89D6F7" stroke="#2170A6" stroke-width="50" stroke-miterlimit="10" d="M1077.481,535.573
	c0,152.59-66.719,289.66-172.75,383.4c-10.48-16.131-24.389-30.039-40.109-41.529c-26.211-19.551-73.779-52.01-125.58-75.99
	c-51.811-23.791-82.25-79.631-73.979-135.861c0-0.809,0.199-1.617,0.4-2.617c0,0,117.92-79.83,101.6-157.643
	c0,0,3.619,0.211,9.07-0.199c52-4.841,55.229-82.24,3.83-90.5c-0.41,0-1.012-0.21-1.422-0.21l-1.609-8.46
	c15.721-55.03,54.02-221.73-61.879-205.61c0,0-83.25-137.67-259.231-71.36c-176.17,66.12-130.21,223.95-130.21,223.95l21.77,62.89
	c-47.37,11.7-42.94,84.87,7.45,89.5c5.45,0.41,9.28,0.211,9.28,0.211c-16.531,77.799,101.389,157.629,101.389,157.629
	c0.2,1,0.2,1.813,0.4,2.621c8.07,56.24-22.37,112.07-73.98,135.859c-52,23.99-99.37,56.641-125.58,75.99
	c-15.64,11.43-29.49,25.26-40.15,41.488c-106.01-93.928-172.71-230.988-172.71-383.559c0-282.81,229.19-512,512-512
	C848.292,23.573,1077.481,252.763,1077.481,535.573z"/>
</svg>
